ISO-10303-21;
HEADER;
/* Generated by software containing ST-Developer
 * from STEP Tools, Inc. (www.steptools.com) 
 */

FILE_DESCRIPTION(
/* description */ (''),
/* implementation_level */ '2;1');

FILE_NAME(
/* name */ 'Link 2 Hydraulic Spacer.stp',
/* time_stamp */ '2026-05-09T19:40:49-04:00',
/* author */ ('avsar'),
/* organization */ (''),
/* preprocessor_version */ 'ST-DEVELOPER v20.1',
/* originating_system */ 'Autodesk Inventor 2026',
/* authorisation */ '');

FILE_SCHEMA (('AUTOMOTIVE_DESIGN { 1 0 10303 214 3 1 1 }'));
ENDSEC;

DATA;
#10=MECHANICAL_DESIGN_GEOMETRIC_PRESENTATION_REPRESENTATION('',(#13),#254);
#11=SHAPE_REPRESENTATION_RELATIONSHIP('SRR','None',#261,#12);
#12=ADVANCED_BREP_SHAPE_REPRESENTATION('',(#14),#253);
#13=STYLED_ITEM('',(#270),#14);
#14=MANIFOLD_SOLID_BREP('Solid1',#131);
#15=CYLINDRICAL_SURFACE('',#160,5.);
#16=CYLINDRICAL_SURFACE('',#165,3.3);
#17=FACE_BOUND('',#31,.T.);
#18=FACE_BOUND('',#37,.T.);
#19=PLANE('',#158);
#20=PLANE('',#169);
#21=FACE_OUTER_BOUND('',#29,.T.);
#22=FACE_OUTER_BOUND('',#30,.T.);
#23=FACE_OUTER_BOUND('',#32,.T.);
#24=FACE_OUTER_BOUND('',#33,.T.);
#25=FACE_OUTER_BOUND('',#34,.T.);
#26=FACE_OUTER_BOUND('',#35,.T.);
#27=FACE_OUTER_BOUND('',#36,.T.);
#28=FACE_OUTER_BOUND('',#38,.T.);
#29=EDGE_LOOP('',(#87,#88,#89,#90,#91));
#30=EDGE_LOOP('',(#92));
#31=EDGE_LOOP('',(#93));
#32=EDGE_LOOP('',(#94,#95,#96,#97,#98,#99));
#33=EDGE_LOOP('',(#100,#101,#102,#103));
#34=EDGE_LOOP('',(#104,#105,#106,#107));
#35=EDGE_LOOP('',(#108,#109,#110,#111,#112));
#36=EDGE_LOOP('',(#113));
#37=EDGE_LOOP('',(#114));
#38=EDGE_LOOP('',(#115,#116,#117,#118));
#39=LINE('',#223,#45);
#40=LINE('',#233,#46);
#41=LINE('',#237,#47);
#42=LINE('',#241,#48);
#43=LINE('',#245,#49);
#44=LINE('',#250,#50);
#45=VECTOR('',#180,4.9);
#46=VECTOR('',#193,5.);
#47=VECTOR('',#198,3.4);
#48=VECTOR('',#203,3.3);
#49=VECTOR('',#208,4.9);
#50=VECTOR('',#215,3.4);
#51=CIRCLE('',#155,5.);
#52=CIRCLE('',#156,5.);
#53=CIRCLE('',#157,4.8);
#54=CIRCLE('',#159,3.5);
#55=CIRCLE('',#161,5.);
#56=CIRCLE('',#162,5.);
#57=CIRCLE('',#164,3.3);
#58=CIRCLE('',#166,3.3);
#59=CIRCLE('',#168,4.8);
#60=CIRCLE('',#170,3.5);
#61=VERTEX_POINT('',#218);
#62=VERTEX_POINT('',#219);
#63=VERTEX_POINT('',#222);
#64=VERTEX_POINT('',#226);
#65=VERTEX_POINT('',#229);
#66=VERTEX_POINT('',#230);
#67=VERTEX_POINT('',#235);
#68=VERTEX_POINT('',#239);
#69=VERTEX_POINT('',#243);
#70=VERTEX_POINT('',#247);
#71=EDGE_CURVE('',#61,#62,#51,.T.);
#72=EDGE_CURVE('',#62,#61,#52,.T.);
#73=EDGE_CURVE('',#61,#63,#39,.T.);
#74=EDGE_CURVE('',#63,#63,#53,.T.);
#75=EDGE_CURVE('',#64,#64,#54,.T.);
#76=EDGE_CURVE('',#65,#66,#55,.T.);
#77=EDGE_CURVE('',#66,#65,#56,.T.);
#78=EDGE_CURVE('',#66,#62,#40,.T.);
#79=EDGE_CURVE('',#67,#67,#57,.T.);
#80=EDGE_CURVE('',#67,#64,#41,.T.);
#81=EDGE_CURVE('',#68,#68,#58,.T.);
#82=EDGE_CURVE('',#68,#67,#42,.T.);
#83=EDGE_CURVE('',#69,#69,#59,.T.);
#84=EDGE_CURVE('',#69,#65,#43,.T.);
#85=EDGE_CURVE('',#70,#70,#60,.T.);
#86=EDGE_CURVE('',#70,#68,#44,.T.);
#87=ORIENTED_EDGE('',*,*,#71,.T.);
#88=ORIENTED_EDGE('',*,*,#72,.T.);
#89=ORIENTED_EDGE('',*,*,#73,.T.);
#90=ORIENTED_EDGE('',*,*,#74,.T.);
#91=ORIENTED_EDGE('',*,*,#73,.F.);
#92=ORIENTED_EDGE('',*,*,#74,.F.);
#93=ORIENTED_EDGE('',*,*,#75,.F.);
#94=ORIENTED_EDGE('',*,*,#76,.F.);
#95=ORIENTED_EDGE('',*,*,#77,.F.);
#96=ORIENTED_EDGE('',*,*,#78,.T.);
#97=ORIENTED_EDGE('',*,*,#71,.F.);
#98=ORIENTED_EDGE('',*,*,#72,.F.);
#99=ORIENTED_EDGE('',*,*,#78,.F.);
#100=ORIENTED_EDGE('',*,*,#79,.T.);
#101=ORIENTED_EDGE('',*,*,#80,.T.);
#102=ORIENTED_EDGE('',*,*,#75,.T.);
#103=ORIENTED_EDGE('',*,*,#80,.F.);
#104=ORIENTED_EDGE('',*,*,#81,.F.);
#105=ORIENTED_EDGE('',*,*,#82,.T.);
#106=ORIENTED_EDGE('',*,*,#79,.F.);
#107=ORIENTED_EDGE('',*,*,#82,.F.);
#108=ORIENTED_EDGE('',*,*,#83,.T.);
#109=ORIENTED_EDGE('',*,*,#84,.T.);
#110=ORIENTED_EDGE('',*,*,#76,.T.);
#111=ORIENTED_EDGE('',*,*,#77,.T.);
#112=ORIENTED_EDGE('',*,*,#84,.F.);
#113=ORIENTED_EDGE('',*,*,#83,.F.);
#114=ORIENTED_EDGE('',*,*,#85,.F.);
#115=ORIENTED_EDGE('',*,*,#85,.T.);
#116=ORIENTED_EDGE('',*,*,#86,.T.);
#117=ORIENTED_EDGE('',*,*,#81,.T.);
#118=ORIENTED_EDGE('',*,*,#86,.F.);
#119=CONICAL_SURFACE('',#154,4.9,0.785398163397449);
#120=CONICAL_SURFACE('',#163,3.4,0.785398163397449);
#121=CONICAL_SURFACE('',#167,4.9,0.785398163397448);
#122=CONICAL_SURFACE('',#171,3.4,0.785398163397448);
#123=ADVANCED_FACE('',(#21),#119,.T.);
#124=ADVANCED_FACE('',(#22,#17),#19,.F.);
#125=ADVANCED_FACE('',(#23),#15,.T.);
#126=ADVANCED_FACE('',(#24),#120,.F.);
#127=ADVANCED_FACE('',(#25),#16,.F.);
#128=ADVANCED_FACE('',(#26),#121,.T.);
#129=ADVANCED_FACE('',(#27,#18),#20,.T.);
#130=ADVANCED_FACE('',(#28),#122,.F.);
#131=CLOSED_SHELL('',(#123,#124,#125,#126,#127,#128,#129,#130));
#132=DERIVED_UNIT_ELEMENT(#135,1.);
#133=DERIVED_UNIT_ELEMENT(#256,-3.);
#134=DIMENSIONAL_EXPONENTS(0.,1.,0.,0.,0.,0.,0.);
#135=(
CONVERSION_BASED_UNIT('gram',#137)
MASS_UNIT()
NAMED_UNIT(#134)
);
#136=(
MASS_UNIT()
NAMED_UNIT(*)
SI_UNIT(.KILO.,.GRAM.)
);
#137=MASS_MEASURE_WITH_UNIT(MASS_MEASURE(0.001),#136);
#138=DERIVED_UNIT((#132,#133));
#139=MEASURE_REPRESENTATION_ITEM('density measure',
POSITIVE_RATIO_MEASURE(1.),#138);
#140=PROPERTY_DEFINITION_REPRESENTATION(#145,#142);
#141=PROPERTY_DEFINITION_REPRESENTATION(#146,#143);
#142=REPRESENTATION('material name',(#144),#253);
#143=REPRESENTATION('density',(#139),#253);
#144=DESCRIPTIVE_REPRESENTATION_ITEM('Generic','Generic');
#145=PROPERTY_DEFINITION('material property','material name',#263);
#146=PROPERTY_DEFINITION('material property','density of part',#263);
#147=DATE_TIME_ROLE('creation_date');
#148=APPLIED_DATE_AND_TIME_ASSIGNMENT(#149,#147,(#263));
#149=DATE_AND_TIME(#150,#151);
#150=CALENDAR_DATE(2026,26,1);
#151=LOCAL_TIME(0,0,0.,#152);
#152=COORDINATED_UNIVERSAL_TIME_OFFSET(0,0,.BEHIND.);
#153=AXIS2_PLACEMENT_3D('',#216,#172,#173);
#154=AXIS2_PLACEMENT_3D('',#217,#174,#175);
#155=AXIS2_PLACEMENT_3D('',#220,#176,#177);
#156=AXIS2_PLACEMENT_3D('',#221,#178,#179);
#157=AXIS2_PLACEMENT_3D('',#224,#181,#182);
#158=AXIS2_PLACEMENT_3D('',#225,#183,#184);
#159=AXIS2_PLACEMENT_3D('',#227,#185,#186);
#160=AXIS2_PLACEMENT_3D('',#228,#187,#188);
#161=AXIS2_PLACEMENT_3D('',#231,#189,#190);
#162=AXIS2_PLACEMENT_3D('',#232,#191,#192);
#163=AXIS2_PLACEMENT_3D('',#234,#194,#195);
#164=AXIS2_PLACEMENT_3D('',#236,#196,#197);
#165=AXIS2_PLACEMENT_3D('',#238,#199,#200);
#166=AXIS2_PLACEMENT_3D('',#240,#201,#202);
#167=AXIS2_PLACEMENT_3D('',#242,#204,#205);
#168=AXIS2_PLACEMENT_3D('',#244,#206,#207);
#169=AXIS2_PLACEMENT_3D('',#246,#209,#210);
#170=AXIS2_PLACEMENT_3D('',#248,#211,#212);
#171=AXIS2_PLACEMENT_3D('',#249,#213,#214);
#172=DIRECTION('axis',(0.,0.,1.));
#173=DIRECTION('refdir',(1.,0.,0.));
#174=DIRECTION('center_axis',(0.,1.,0.));
#175=DIRECTION('ref_axis',(1.,0.,0.));
#176=DIRECTION('center_axis',(0.,-1.,0.));
#177=DIRECTION('ref_axis',(1.,0.,0.));
#178=DIRECTION('center_axis',(0.,-1.,0.));
#179=DIRECTION('ref_axis',(1.,0.,0.));
#180=DIRECTION('',(0.707106781186548,-0.707106781186547,-8.65956056235494E-17));
#181=DIRECTION('center_axis',(0.,1.,0.));
#182=DIRECTION('ref_axis',(1.,0.,0.));
#183=DIRECTION('center_axis',(0.,1.,0.));
#184=DIRECTION('ref_axis',(0.,0.,1.));
#185=DIRECTION('center_axis',(0.,-1.,0.));
#186=DIRECTION('ref_axis',(1.,0.,0.));
#187=DIRECTION('center_axis',(0.,1.,0.));
#188=DIRECTION('ref_axis',(-1.,0.,0.));
#189=DIRECTION('center_axis',(0.,1.,0.));
#190=DIRECTION('ref_axis',(1.,0.,0.));
#191=DIRECTION('center_axis',(0.,1.,0.));
#192=DIRECTION('ref_axis',(1.,0.,0.));
#193=DIRECTION('',(0.,-1.,0.));
#194=DIRECTION('center_axis',(0.,-1.,0.));
#195=DIRECTION('ref_axis',(1.,0.,0.));
#196=DIRECTION('center_axis',(0.,1.,0.));
#197=DIRECTION('ref_axis',(1.,0.,0.));
#198=DIRECTION('',(-0.707106781186548,-0.707106781186547,8.65956056235493E-17));
#199=DIRECTION('center_axis',(0.,1.,0.));
#200=DIRECTION('ref_axis',(1.,0.,0.));
#201=DIRECTION('center_axis',(0.,-1.,0.));
#202=DIRECTION('ref_axis',(1.,0.,0.));
#203=DIRECTION('',(0.,-1.,0.));
#204=DIRECTION('center_axis',(0.,-1.,0.));
#205=DIRECTION('ref_axis',(1.,0.,0.));
#206=DIRECTION('center_axis',(0.,-1.,0.));
#207=DIRECTION('ref_axis',(1.,0.,0.));
#208=DIRECTION('',(-0.707106781186548,-0.707106781186548,8.65956056235494E-17));
#209=DIRECTION('center_axis',(0.,1.,0.));
#210=DIRECTION('ref_axis',(0.,0.,1.));
#211=DIRECTION('center_axis',(0.,1.,0.));
#212=DIRECTION('ref_axis',(1.,0.,0.));
#213=DIRECTION('center_axis',(0.,1.,0.));
#214=DIRECTION('ref_axis',(1.,0.,0.));
#215=DIRECTION('',(0.707106781186548,-0.707106781186548,-8.65956056235493E-17));
#216=CARTESIAN_POINT('',(0.,0.,0.));
#217=CARTESIAN_POINT('Origin',(0.,0.1,0.));
#218=CARTESIAN_POINT('',(-5.,0.2,-6.12323399573677E-16));
#219=CARTESIAN_POINT('',(5.,0.2,-6.12323399573677E-16));
#220=CARTESIAN_POINT('Origin',(0.,0.2,0.));
#221=CARTESIAN_POINT('Origin',(0.,0.2,0.));
#222=CARTESIAN_POINT('',(-4.8,0.,5.87830463590729E-16));
#223=CARTESIAN_POINT('',(-4.9,0.1,6.00076931582203E-16));
#224=CARTESIAN_POINT('Origin',(0.,0.,0.));
#225=CARTESIAN_POINT('Origin',(0.,0.,0.));
#226=CARTESIAN_POINT('',(-3.5,0.,-4.28626379701574E-16));
#227=CARTESIAN_POINT('Origin',(0.,0.,0.));
#228=CARTESIAN_POINT('Origin',(0.,0.,0.));
#229=CARTESIAN_POINT('',(-5.,35.995,6.12323399573677E-16));
#230=CARTESIAN_POINT('',(5.,35.995,-6.12323399573677E-16));
#231=CARTESIAN_POINT('Origin',(0.,35.995,0.));
#232=CARTESIAN_POINT('Origin',(0.,35.995,0.));
#233=CARTESIAN_POINT('',(5.,0.,-6.12323399573677E-16));
#234=CARTESIAN_POINT('Origin',(0.,0.1,0.));
#235=CARTESIAN_POINT('',(-3.3,0.2,4.04133443718627E-16));
#236=CARTESIAN_POINT('Origin',(0.,0.2,0.));
#237=CARTESIAN_POINT('',(-3.4,0.1,4.163799117101E-16));
#238=CARTESIAN_POINT('Origin',(0.,0.,0.));
#239=CARTESIAN_POINT('',(-3.3,35.995,-4.04133443718627E-16));
#240=CARTESIAN_POINT('Origin',(0.,35.995,0.));
#241=CARTESIAN_POINT('',(-3.3,0.,4.04133443718627E-16));
#242=CARTESIAN_POINT('Origin',(0.,36.095,0.));
#243=CARTESIAN_POINT('',(-4.8,36.195,-5.87830463590729E-16));
#244=CARTESIAN_POINT('Origin',(0.,36.195,0.));
#245=CARTESIAN_POINT('',(-4.9,36.095,6.00076931582203E-16));
#246=CARTESIAN_POINT('Origin',(0.,36.195,0.));
#247=CARTESIAN_POINT('',(-3.5,36.195,4.28626379701574E-16));
#248=CARTESIAN_POINT('Origin',(0.,36.195,0.));
#249=CARTESIAN_POINT('Origin',(0.,36.095,0.));
#250=CARTESIAN_POINT('',(-3.4,36.095,4.163799117101E-16));
#251=UNCERTAINTY_MEASURE_WITH_UNIT(LENGTH_MEASURE(0.01),#255,
'DISTANCE_ACCURACY_VALUE',
'Maximum model space distance between geometric entities at asserted c
onnectivities');
#252=UNCERTAINTY_MEASURE_WITH_UNIT(LENGTH_MEASURE(0.01),#255,
'DISTANCE_ACCURACY_VALUE',
'Maximum model space distance between geometric entities at asserted c
onnectivities');
#253=(
GEOMETRIC_REPRESENTATION_CONTEXT(3)
GLOBAL_UNCERTAINTY_ASSIGNED_CONTEXT((#251))
GLOBAL_UNIT_ASSIGNED_CONTEXT((#255,#257,#258))
REPRESENTATION_CONTEXT('','3D')
);
#254=(
GEOMETRIC_REPRESENTATION_CONTEXT(3)
GLOBAL_UNCERTAINTY_ASSIGNED_CONTEXT((#252))
GLOBAL_UNIT_ASSIGNED_CONTEXT((#255,#257,#258))
REPRESENTATION_CONTEXT('','3D')
);
#255=(
LENGTH_UNIT()
NAMED_UNIT(*)
SI_UNIT(.MILLI.,.METRE.)
);
#256=(
LENGTH_UNIT()
NAMED_UNIT(*)
SI_UNIT(.CENTI.,.METRE.)
);
#257=(
NAMED_UNIT(*)
PLANE_ANGLE_UNIT()
SI_UNIT($,.RADIAN.)
);
#258=(
NAMED_UNIT(*)
SI_UNIT($,.STERADIAN.)
SOLID_ANGLE_UNIT()
);
#259=SHAPE_DEFINITION_REPRESENTATION(#260,#261);
#260=PRODUCT_DEFINITION_SHAPE('',$,#263);
#261=SHAPE_REPRESENTATION('',(#153),#253);
#262=PRODUCT_DEFINITION_CONTEXT('part definition',#267,'design');
#263=PRODUCT_DEFINITION('Link 2 Hydraulic Spacer',
'Link 2 Hydraulic Spacer',#264,#262);
#264=PRODUCT_DEFINITION_FORMATION('',$,#269);
#265=PRODUCT_RELATED_PRODUCT_CATEGORY('Link 2 Hydraulic Spacer',
'Link 2 Hydraulic Spacer',(#269));
#266=APPLICATION_PROTOCOL_DEFINITION('international standard',
'automotive_design',2009,#267);
#267=APPLICATION_CONTEXT(
'Core Data for Automotive Mechanical Design Process');
#268=PRODUCT_CONTEXT('part definition',#267,'mechanical');
#269=PRODUCT('Link 2 Hydraulic Spacer','Link 2 Hydraulic Spacer',$,(#268));
#270=PRESENTATION_STYLE_ASSIGNMENT((#271));
#271=SURFACE_STYLE_USAGE(.BOTH.,#274);
#272=SURFACE_STYLE_RENDERING_WITH_PROPERTIES($,#278,(#273));
#273=SURFACE_STYLE_TRANSPARENT(0.);
#274=SURFACE_SIDE_STYLE('',(#275,#272));
#275=SURFACE_STYLE_FILL_AREA(#276);
#276=FILL_AREA_STYLE('',(#277));
#277=FILL_AREA_STYLE_COLOUR('',#278);
#278=COLOUR_RGB('',0.109803921568627,0.576470588235294,0.247058823529412);
ENDSEC;
END-ISO-10303-21;
